<svg width="100%" height="100%" viewBox="0 0 50 50" fill="none" xmlns="http://www.w3.org/2000/svg">
<g clip-path="url(#clip0_233_179)">
<path d="M25.3677 30.1471C28.4133 30.1471 30.8824 27.6781 30.8824 24.6324C30.8824 21.5867 28.4133 19.1177 25.3677 19.1177C22.322 19.1177 19.853 21.5867 19.853 24.6324C19.853 27.6781 22.322 30.1471 25.3677 30.1471Z" fill="#8CC63F"/>
</g>
<path d="M25 0C11.1912 0 0 11.1912 0 25C0 38.8088 11.1912 50 25 50C38.8088 50 50 38.8088 50 25C50 11.1912 38.8088 0 25 0ZM25 45.2206C13.8309 45.2206 4.77941 36.1691 4.77941 25C4.77941 13.8309 13.8309 4.77941 25 4.77941C36.1691 4.77941 45.2206 13.8309 45.2206 25C45.2206 36.1691 36.1691 45.2206 25 45.2206Z" fill="#8CC63F"/>
<defs>
<clipPath id="clip0_233_179">
<rect width="11.0294" height="11.0294" fill="white" transform="translate(19.853 19.1177)"/>
</clipPath>
</defs>
</svg>
