<svg width="1266" height="685" viewBox="0 0 1266 685" fill="none" xmlns="http://www.w3.org/2000/svg">
<g filter="url(#filter0_b_5_125)">
<path d="M1.79104 610.922C13.9334 665.873 84.1829 697.072 158.707 680.599C233.224 664.126 283.785 606.225 271.642 551.274C354.065 532.924 421.105 492.676 454.383 447.019C471.85 449.915 490.174 451.179 509.02 450.674C508.943 456.688 509.525 462.672 510.835 468.595C526.908 541.314 644.424 577.171 773.317 548.677C794.476 543.995 814.624 537.866 833.454 530.579C880.668 586.319 973.708 612.661 1071.03 591.154C1197.66 563.165 1283.57 464.779 1262.94 371.396C1252.4 323.694 1216.09 286.541 1166.21 265.325C1190.51 229.797 1200.77 189.504 1192.07 150.091C1171.43 56.7082 1052.06 3.70336 925.438 31.6922C912.973 34.4504 900.908 37.8983 889.294 41.9437C838.166 4.65343 760.554 -10.3255 680.009 7.47299C612.877 22.314 557.191 56.938 522.756 100.12C513.134 101.331 503.435 103.001 493.683 105.162C388.102 128.5 310.835 200.79 300.026 278.305C272.34 278.297 242.891 281.438 212.823 288.081C83.93 316.576 -7.53215 398.619 8.53253 471.338C12.5927 489.711 23.134 505.724 38.6931 518.941C9.59738 544.394 -5.43308 578.182 1.79871 610.929L1.79104 610.922Z" fill="#75C1FF"/>
</g>
<defs>
<filter id="filter0_b_5_125" x="-10" y="-10" width="1286" height="705" filterUnits="userSpaceOnUse" color-interpolation-filters="sRGB">
<feFlood flood-opacity="0" result="BackgroundImageFix"/>
<feGaussianBlur in="BackgroundImageFix" stdDeviation="5"/>
<feComposite in2="SourceAlpha" operator="in" result="effect1_backgroundBlur_5_125"/>
<feBlend mode="normal" in="SourceGraphic" in2="effect1_backgroundBlur_5_125" result="shape"/>
</filter>
</defs>
</svg>
