<svg width="2339" height="1448" viewBox="0 0 2339 1448" fill="none" xmlns="http://www.w3.org/2000/svg">
<g filter="url(#filter0_b_5_124)">
<path d="M873.791 945.922C885.933 1000.87 956.183 1032.07 1030.71 1015.6C1105.22 999.126 1155.78 941.225 1143.64 886.274C1226.06 867.924 1293.1 827.676 1326.38 782.019C1343.85 784.915 1362.17 786.179 1381.02 785.674C1380.94 791.688 1381.53 797.672 1382.84 803.595C1398.91 876.314 1516.42 912.171 1645.32 883.677C1666.48 878.995 1686.62 872.866 1705.45 865.579C1752.67 921.319 1845.71 947.661 1943.03 926.154C2069.66 898.165 2155.57 799.779 2134.94 706.396C2124.4 658.694 2088.09 621.541 2038.21 600.325C2062.51 564.797 2072.77 524.504 2064.07 485.091C2043.43 391.708 1924.06 338.703 1797.44 366.692C1784.97 369.45 1772.91 372.898 1761.29 376.944C1710.17 339.653 1632.55 324.674 1552.01 342.473C1484.88 357.314 1429.19 391.938 1394.76 435.12C1385.13 436.331 1375.44 438.001 1365.68 440.162C1260.1 463.5 1182.84 535.79 1172.03 613.305C1144.34 613.297 1114.89 616.438 1084.82 623.081C955.93 651.576 864.468 733.619 880.533 806.338C884.593 824.711 895.134 840.724 910.693 853.941C881.597 879.394 866.567 913.182 873.799 945.929L873.791 945.922Z" fill="#CCCCCC"/>
</g>
<g filter="url(#filter1_b_5_124)">
<path d="M2157 1013.16C2157 918.399 2053.76 841.43 1925.69 840.036C1886.97 783.653 1807.64 745 1716.06 745C1593.56 745 1492.98 814.17 1482.2 902.425C1377.28 919.74 1298.87 988.81 1298.87 1071.39C1298.87 1081.38 1300.04 1091.17 1302.24 1100.69C1213.66 1120.44 1151 1169.17 1151 1226.15C1151 1300.63 1258.03 1361 1390.05 1361C1501.77 1361 1595.59 1317.77 1621.8 1259.34C1664.48 1291.79 1724.23 1311.97 1790.38 1311.97C1905.57 1311.97 2001.38 1250.81 2021.37 1170.13C2101.47 1142.56 2157 1082.64 2157 1013.16Z" fill="#E6E6E6"/>
</g>
<g filter="url(#filter2_b_5_124)">
<path d="M254.617 326.637C215.072 434.961 301.056 566.006 446.97 621.002C467.736 701.609 542.339 778.869 647.094 817.056C787.214 868.137 931.122 831.012 980.285 734.622C1107.52 758.582 1226.03 712.321 1260.49 617.916C1264.66 606.495 1267.41 594.814 1268.87 583.011C1378.43 597.378 1470.44 567.805 1494.22 502.665C1525.29 417.527 1428.06 303.889 1277.05 248.837C1149.25 202.249 1023.91 212.551 969.548 268.415C934.266 213.521 874.337 165.535 798.67 137.958C666.899 89.9072 531.788 119.862 475.255 203.751C372.124 201.867 283.611 247.205 254.617 326.637Z" fill="#E6E6E6"/>
</g>
<g filter="url(#filter3_b_5_124)">
<path d="M1545 814.368C1545 758.12 1483.14 712.517 1406.83 712.517C1330.53 712.517 1268.67 758.12 1268.67 814.368C1184.23 814.498 1110.09 839.31 1067.76 876.689C1051.33 870.095 1033.71 864.911 1015.2 861.342C1016.58 855.492 1017.3 849.526 1017.3 843.461C1017.3 769.025 910.295 708.68 778.302 708.68C756.632 708.68 735.643 710.319 715.681 713.367C681.608 648.779 596.458 603 496.792 603C367.113 603.008 262 680.491 262 776.078C262 824.906 289.439 869 333.561 900.467C302.17 929.897 283.448 967.007 283.448 1007.35C283.448 1102.94 388.561 1180.42 518.232 1180.42C530.994 1180.42 543.518 1179.66 555.729 1178.21C597.607 1225.64 670.149 1257 752.633 1257C821.375 1257 883.224 1235.22 926.159 1200.51C935.811 1201.4 945.646 1201.86 955.627 1201.86C1063.75 1201.86 1154.78 1147.98 1182.06 1074.66C1209.09 1080.64 1238.52 1083.93 1269.31 1083.93C1401.3 1083.93 1508.31 1023.58 1508.31 949.149C1508.31 930.341 1501.47 912.444 1489.13 896.178C1523.03 877.615 1545 847.887 1545 814.368Z" fill="#F2F2F2"/>
</g>
<defs>
<filter id="filter0_b_5_124" x="862" y="325" width="1286" height="705" filterUnits="userSpaceOnUse" color-interpolation-filters="sRGB">
<feFlood flood-opacity="0" result="BackgroundImageFix"/>
<feGaussianBlur in="BackgroundImageFix" stdDeviation="5"/>
<feComposite in2="SourceAlpha" operator="in" result="effect1_backgroundBlur_5_124"/>
<feBlend mode="normal" in="SourceGraphic" in2="effect1_backgroundBlur_5_124" result="shape"/>
</filter>
<filter id="filter1_b_5_124" x="1141" y="735" width="1026" height="636" filterUnits="userSpaceOnUse" color-interpolation-filters="sRGB">
<feFlood flood-opacity="0" result="BackgroundImageFix"/>
<feGaussianBlur in="BackgroundImageFix" stdDeviation="5"/>
<feComposite in2="SourceAlpha" operator="in" result="effect1_backgroundBlur_5_124"/>
<feBlend mode="normal" in="SourceGraphic" in2="effect1_backgroundBlur_5_124" result="shape"/>
</filter>
<filter id="filter2_b_5_124" x="235" y="105" width="1275" height="745" filterUnits="userSpaceOnUse" color-interpolation-filters="sRGB">
<feFlood flood-opacity="0" result="BackgroundImageFix"/>
<feGaussianBlur in="BackgroundImageFix" stdDeviation="5"/>
<feComposite in2="SourceAlpha" operator="in" result="effect1_backgroundBlur_5_124"/>
<feBlend mode="normal" in="SourceGraphic" in2="effect1_backgroundBlur_5_124" result="shape"/>
</filter>
<filter id="filter3_b_5_124" x="252" y="593" width="1303" height="674" filterUnits="userSpaceOnUse" color-interpolation-filters="sRGB">
<feFlood flood-opacity="0" result="BackgroundImageFix"/>
<feGaussianBlur in="BackgroundImageFix" stdDeviation="5"/>
<feComposite in2="SourceAlpha" operator="in" result="effect1_backgroundBlur_5_124"/>
<feBlend mode="normal" in="SourceGraphic" in2="effect1_backgroundBlur_5_124" result="shape"/>
</filter>
</defs>
</svg>
