<svg width="1283" height="654" viewBox="0 0 1283 654" fill="none" xmlns="http://www.w3.org/2000/svg">
<g filter="url(#filter0_b_5_128)">
<path d="M1283 211.368C1283 155.12 1221.14 109.517 1144.83 109.517C1068.53 109.517 1006.67 155.12 1006.67 211.368C922.23 211.498 848.094 236.31 805.757 273.689C789.326 267.095 771.707 261.911 753.2 258.342C754.579 252.492 755.299 246.526 755.299 240.461C755.299 166.025 648.295 105.68 516.302 105.68C494.632 105.68 473.643 107.319 453.681 110.367C419.608 45.7795 334.458 0 234.792 0C105.113 0.00765799 0 77.4912 0 173.078C0 221.906 27.4387 266 71.5612 297.467C40.1699 326.897 21.4484 364.007 21.4484 404.35C21.4484 499.937 126.561 577.42 256.232 577.42C268.994 577.42 281.518 576.662 293.729 575.215C335.607 622.641 408.149 654 490.633 654C559.375 654 621.224 632.221 664.159 597.507C673.811 598.395 683.646 598.862 693.627 598.862C801.751 598.862 892.784 544.981 920.062 471.663C947.094 477.644 976.525 480.929 1007.31 480.929C1139.3 480.929 1246.31 420.584 1246.31 346.149C1246.31 327.341 1239.47 309.444 1227.13 293.178C1261.03 274.615 1283 244.887 1283 211.368Z" fill="#A2D5FF"/>
</g>
<defs>
<filter id="filter0_b_5_128" x="-10" y="-10" width="1303" height="674" filterUnits="userSpaceOnUse" color-interpolation-filters="sRGB">
<feFlood flood-opacity="0" result="BackgroundImageFix"/>
<feGaussianBlur in="BackgroundImageFix" stdDeviation="5"/>
<feComposite in2="SourceAlpha" operator="in" result="effect1_backgroundBlur_5_128"/>
<feBlend mode="normal" in="SourceGraphic" in2="effect1_backgroundBlur_5_128" result="shape"/>
</filter>
</defs>
</svg>
