<svg width="219" height="53" viewBox="0 0 219 53" fill="none" xmlns="http://www.w3.org/2000/svg">
<g clip-path="url(#clip0_5_74)">
<path d="M217.137 31.683C215.892 29.6952 214.12 28.2288 211.823 27.287C209.524 26.3453 206.805 25.8744 203.669 25.8744H197.829C197.288 25.8744 196.841 25.6861 196.49 25.3094C196.138 24.9327 195.962 24.5022 195.962 24.0178C195.962 23.5335 196.138 23.103 196.49 22.7263C196.841 22.3496 197.288 22.1613 197.829 22.1613H215.517V11.1866H194.18C191.636 11.1866 189.313 11.792 187.203 13.0028C185.092 14.2136 183.432 15.828 182.214 17.8427C180.997 19.8607 180.388 22.1074 180.388 24.5795C180.388 27.7545 181.051 30.3477 182.377 32.3657C183.702 34.3837 185.502 35.8636 187.771 36.802C190.044 37.7437 192.556 38.2146 195.316 38.2146H201.644C202.077 38.2146 202.428 38.2953 202.699 38.4568C202.969 38.6182 203.186 38.8469 203.348 39.1429C203.511 39.4389 203.592 39.7483 203.592 40.0712C203.592 40.3941 203.511 40.7035 203.348 40.9995C203.186 41.2955 202.969 41.5376 202.699 41.726C202.591 41.8 202.469 41.8572 202.337 41.9009H167.337C168.118 41.652 168.866 41.3526 169.569 40.9928C171.845 39.8223 173.59 38.2314 174.804 36.2168C176.018 34.2021 176.627 31.9117 176.627 29.342V12.1956H165.521V28.6492C165.521 29.3387 165.348 30.0114 165 30.6639C164.652 31.3163 164.161 31.8444 163.525 32.2446C162.89 32.6449 162.129 32.85 161.239 32.85C160.35 32.85 159.572 32.6482 158.895 32.2446C158.219 31.841 157.708 31.3163 157.363 30.6639C157.015 30.0114 156.843 29.342 156.843 28.6492V12.1956H145.794V29.342C145.794 31.9117 146.45 34.2055 147.762 36.2168C149.074 38.2314 150.904 39.8223 153.258 40.9928C153.985 41.3526 154.749 41.652 155.551 41.9009H140.822V0H129.773V41.9009H115.566C116.347 41.652 117.094 41.3526 117.798 40.9928C120.074 39.8223 121.819 38.2314 123.033 36.2168C124.247 34.2021 124.856 31.9117 124.856 29.342V12.1956H113.749V28.6492C113.749 29.3387 113.577 30.0114 113.229 30.6639C112.88 31.3163 112.39 31.8444 111.754 32.2446C111.118 32.6449 110.357 32.85 109.468 32.85C108.578 32.85 107.801 32.6482 107.124 32.2446C106.448 31.841 105.937 31.3163 105.592 30.6639C105.244 30.0114 105.071 29.342 105.071 28.6492V12.1956H94.0224V29.342C94.0224 31.9117 94.6785 34.2055 95.9907 36.2168C97.3029 38.2314 99.1325 39.8223 101.486 40.9928C102.214 41.3526 102.978 41.652 103.779 41.9009H90.0316V33.0821H85.1143C83.8798 33.0821 82.8077 32.8231 81.9047 32.3052C80.9984 31.7872 80.2949 31.0775 79.7944 30.1762C79.2939 29.2748 79.0436 28.2691 79.0436 27.1559C79.0436 26.0426 79.2939 25.047 79.7944 24.1625C80.2949 23.2813 80.9984 22.5817 81.9047 22.0637C82.8111 21.5458 83.8798 21.2868 85.1143 21.2868H90.0316V12.1956H84.1301C81.0051 12.1956 78.2285 12.8279 75.8003 14.0959C73.372 15.3605 71.4612 17.1162 70.0712 19.3596C68.6812 21.6029 67.9879 24.2028 67.9879 27.1559C67.9879 30.1089 68.6812 32.6987 70.0712 34.9219C71.4612 37.1484 73.3686 38.8839 75.8003 40.1284C77.6874 41.097 79.7876 41.6856 82.0941 41.9009H54.4769C55.2581 41.652 56.0056 41.3526 56.709 40.9928C58.9851 39.8223 60.7302 38.2314 61.9443 36.2168C63.1584 34.2021 63.7672 31.9117 63.7672 29.342V12.1956H52.6608V28.6492C52.6608 29.3387 52.4883 30.0114 52.14 30.6639C51.7916 31.3163 51.3012 31.8444 50.6654 32.2446C50.0296 32.6449 49.2687 32.85 48.3792 32.85C47.4897 32.85 46.7119 32.6482 46.0355 32.2446C45.3591 31.841 44.8484 31.3163 44.5035 30.6639C44.1551 30.0114 43.9826 29.342 43.9826 28.6492V12.1956H32.9337V29.342C32.9337 31.9117 33.5898 34.2055 34.902 36.2168C36.2142 38.2314 38.0439 39.8223 40.3977 40.9928C41.1249 41.3526 41.8892 41.652 42.6907 41.9009H29.1763V32.2749H23.4473C21.6717 32.2749 20.1092 32.0058 18.7598 31.4711C17.4104 30.9329 16.291 30.1963 15.4049 29.2546C14.5188 28.3162 13.8526 27.213 13.4095 25.945C12.9665 24.6804 12.7433 23.3183 12.7433 21.8585C12.7433 20.3988 12.9665 19.04 13.4095 17.7721C13.8526 16.5074 14.5188 15.4042 15.4049 14.4625C16.291 13.5241 17.4104 12.7842 18.7598 12.246C20.1092 11.7079 21.6717 11.4422 23.4473 11.4422H29.1763V1.72541H23.0448C19.4193 1.72541 16.1895 2.20637 13.3554 3.16493C10.5213 4.12349 8.10999 5.50584 6.12477 7.3086C4.13616 9.11137 2.62442 11.2404 1.58277 13.6956C0.541119 16.1509 0.0202942 18.8752 0.0202942 21.8653C0.0202942 24.8553 0.541119 27.5796 1.58277 30.0349C2.62442 32.4902 4.1294 34.6192 6.09433 36.4219C8.06264 38.2247 10.4706 39.6071 13.325 40.5656C15.4387 41.2753 17.7655 41.7226 20.3054 41.9042H1.5388V53.0034H204.796V52.9865H204.884C207.532 52.9865 209.913 52.3677 212.023 51.13C214.133 49.8922 215.821 48.2543 217.093 46.2094C218.364 44.1644 219 41.9076 219 39.4322C219 36.2605 218.378 33.6774 217.133 31.6863L217.137 31.683Z" fill="#3EA8FF"/>
</g>
<defs>
<clipPath id="clip0_5_74">
<rect width="219" height="53" fill="white"/>
</clipPath>
</defs>
</svg>
