<svg width="648" height="158" viewBox="0 0 648 158" fill="none" xmlns="http://www.w3.org/2000/svg">
<g clip-path="url(#clip0_5_54)">
<path d="M642.04 94.2C638.36 88.29 633.12 83.93 626.33 81.13C619.53 78.33 611.49 76.93 602.22 76.93H584.95C583.35 76.93 582.03 76.37 580.99 75.25C579.95 74.13 579.43 72.85 579.43 71.41C579.43 69.97 579.95 68.69 580.99 67.57C582.03 66.45 583.35 65.89 584.95 65.89H637.25V33.26H574.16C566.64 33.26 559.77 35.06 553.53 38.66C547.29 42.26 542.38 47.06 538.78 53.05C535.18 59.05 533.38 65.73 533.38 73.08C533.38 82.52 535.34 90.23 539.26 96.23C543.18 102.23 548.5 106.63 555.21 109.42C561.93 112.22 569.36 113.62 577.52 113.62H596.23C597.51 113.62 598.55 113.86 599.35 114.34C600.15 114.82 600.79 115.5 601.27 116.38C601.75 117.26 601.99 118.18 601.99 119.14C601.99 120.1 601.75 121.02 601.27 121.9C600.79 122.78 600.15 123.5 599.35 124.06C599.03 124.28 598.67 124.45 598.28 124.58H494.79C497.1 123.84 499.31 122.95 501.39 121.88C508.12 118.4 513.28 113.67 516.87 107.68C520.46 101.69 522.26 94.88 522.26 87.24V36.26H489.42V85.18C489.42 87.23 488.91 89.23 487.88 91.17C486.85 93.11 485.4 94.68 483.52 95.87C481.64 97.06 479.39 97.67 476.76 97.67C474.13 97.67 471.83 97.07 469.83 95.87C467.83 94.67 466.32 93.11 465.3 91.17C464.27 89.23 463.76 87.24 463.76 85.18V36.26H431.09V87.24C431.09 94.88 433.03 101.7 436.91 107.68C440.79 113.67 446.2 118.4 453.16 121.88C455.31 122.95 457.57 123.84 459.94 124.58H416.39V0H383.72V124.58H341.71C344.02 123.84 346.23 122.95 348.31 121.88C355.04 118.4 360.2 113.67 363.79 107.68C367.38 101.69 369.18 94.88 369.18 87.24V36.26H336.34V85.18C336.34 87.23 335.83 89.23 334.8 91.17C333.77 93.11 332.32 94.68 330.44 95.87C328.56 97.06 326.31 97.67 323.68 97.67C321.05 97.67 318.75 97.07 316.75 95.87C314.75 94.67 313.24 93.11 312.22 91.17C311.19 89.23 310.68 87.24 310.68 85.18V36.26H278.01V87.24C278.01 94.88 279.95 101.7 283.83 107.68C287.71 113.67 293.12 118.4 300.08 121.88C302.23 122.95 304.49 123.84 306.86 124.58H266.21V98.36H251.67C248.02 98.36 244.85 97.59 242.18 96.05C239.5 94.51 237.42 92.4 235.94 89.72C234.46 87.04 233.72 84.05 233.72 80.74C233.72 77.43 234.46 74.47 235.94 71.84C237.42 69.22 239.5 67.14 242.18 65.6C244.86 64.06 248.02 63.29 251.67 63.29H266.21V36.26H248.76C239.52 36.26 231.31 38.14 224.13 41.91C216.95 45.67 211.3 50.89 207.19 57.56C203.08 64.23 201.03 71.96 201.03 80.74C201.03 89.52 203.08 97.22 207.19 103.83C211.3 110.45 216.94 115.61 224.13 119.31C229.71 122.19 235.92 123.94 242.74 124.58H161.08C163.39 123.84 165.6 122.95 167.68 121.88C174.41 118.4 179.57 113.67 183.16 107.68C186.75 101.69 188.55 94.88 188.55 87.24V36.26H155.71V85.18C155.71 87.23 155.2 89.23 154.17 91.17C153.14 93.11 151.69 94.68 149.81 95.87C147.93 97.06 145.68 97.67 143.05 97.67C140.42 97.67 138.12 97.07 136.12 95.87C134.12 94.67 132.61 93.11 131.59 91.17C130.56 89.23 130.05 87.24 130.05 85.18V36.26H97.3801V87.24C97.3801 94.88 99.3201 101.7 103.2 107.68C107.08 113.67 112.49 118.4 119.45 121.88C121.6 122.95 123.86 123.84 126.23 124.58H86.2701V95.96H69.3301C64.0801 95.96 59.4601 95.16 55.4701 93.57C51.4801 91.97 48.1701 89.78 45.5501 86.98C42.9301 84.19 40.9601 80.91 39.6501 77.14C38.3401 73.38 37.6801 69.33 37.6801 64.99C37.6801 60.65 38.3401 56.61 39.6501 52.84C40.9601 49.08 42.9301 45.8 45.5501 43C48.1701 40.21 51.4801 38.01 55.4701 36.41C59.4601 34.81 64.0801 34.02 69.3301 34.02H86.2701V5.13H68.1401C57.4201 5.13 47.8701 6.56 39.4901 9.41C31.1101 12.26 23.9801 16.37 18.1101 21.73C12.2301 27.09 7.76006 33.42 4.68006 40.72C1.60006 48.02 0.0600586 56.12 0.0600586 65.01C0.0600586 73.9 1.60006 82 4.68006 89.3C7.76006 96.6 12.2101 102.93 18.0201 108.29C23.8401 113.65 30.9601 117.76 39.4001 120.61C45.6501 122.72 52.5301 124.05 60.0401 124.59H4.55006V157.59H605.55V157.54H605.81C613.64 157.54 620.68 155.7 626.92 152.02C633.16 148.34 638.15 143.47 641.91 137.39C645.67 131.31 647.55 124.6 647.55 117.24C647.55 107.81 645.71 100.13 642.03 94.21L642.04 94.2Z" fill="url(#paint0_linear_5_54)"/>
</g>
<defs>
<linearGradient id="paint0_linear_5_54" x1="-4.69994" y1="78.79" x2="647.89" y2="78.79" gradientUnits="userSpaceOnUse">
<stop stop-color="#FF40DB"/>
<stop offset="0.49" stop-color="#3EA8FF"/>
<stop offset="1" stop-color="#5AFFBC"/>
</linearGradient>
<clipPath id="clip0_5_54">
<rect width="647.55" height="157.58" fill="white"/>
</clipPath>
</defs>
</svg>
