<svg width="100%" height="100%" viewBox="0 0 50 50" fill="none" xmlns="http://www.w3.org/2000/svg">
<g clip-path="url(#clip0_233_183)">
<path d="M25 0C11.1912 0 0 11.1912 0 25C0 38.8088 11.1912 50 25 50C38.8088 50 50 38.8088 50 25C50 11.1912 38.8088 0 25 0ZM25 45.2206C13.8309 45.2206 4.77941 36.1691 4.77941 25C4.77941 13.8309 13.8309 4.77941 25 4.77941C36.1691 4.77941 45.2206 13.8309 45.2206 25C45.2206 36.1691 36.1691 45.2206 25 45.2206Z" fill="#93278F"/>
<g clip-path="url(#clip1_233_183)">
<path d="M22.0662 29.8823L14.7279 22.5515L12.5 24.7867L19.8309 32.1176L22.0662 34.3456L24.2941 32.1176L38 18.4044L35.7721 16.1765L22.0662 29.8823Z" fill="#93278F"/>
</g>
</g>
<defs>
<clipPath id="clip0_233_183">
<rect width="50" height="50" fill="white"/>
</clipPath>
<clipPath id="clip1_233_183">
<rect width="25.5" height="18.1691" fill="white" transform="translate(12.5 16.1765)"/>
</clipPath>
</defs>
</svg>
