<svg width="648" height="254" viewBox="0 0 648 254" fill="none" xmlns="http://www.w3.org/2000/svg">
<path d="M641.98 94.74C638.3 88.83 633.06 84.47 626.27 81.67C619.47 78.87 611.43 77.47 602.16 77.47H584.89C583.29 77.47 581.97 76.91 580.93 75.79C579.89 74.67 579.37 73.39 579.37 71.95C579.37 70.51 579.89 69.23 580.93 68.11C581.97 66.99 583.29 66.43 584.89 66.43H637.19V33.8H574.1C566.58 33.8 559.71 35.6 553.47 39.2C547.23 42.8 542.32 47.6 538.72 53.59C535.12 59.59 533.32 66.27 533.32 73.62C533.32 83.06 535.28 90.77 539.2 96.77C543.12 102.77 548.44 107.17 555.15 109.96C561.87 112.76 569.3 114.16 577.46 114.16H596.17C597.45 114.16 598.49 114.4 599.29 114.88C600.09 115.36 600.73 116.04 601.21 116.92C601.69 117.8 601.93 118.72 601.93 119.68C601.93 120.64 601.69 121.56 601.21 122.44C600.73 123.32 600.09 124.04 599.29 124.6C598.97 124.82 598.61 124.99 598.22 125.12H494.73C497.04 124.38 499.25 123.49 501.33 122.42C508.06 118.94 513.22 114.21 516.81 108.22C520.4 102.23 522.2 95.42 522.2 87.78V36.8H489.36V85.72C489.36 87.77 488.85 89.77 487.82 91.71C486.79 93.65 485.34 95.22 483.46 96.41C481.58 97.6 479.33 98.21 476.7 98.21C474.07 98.21 471.77 97.61 469.77 96.41C467.77 95.21 466.26 93.65 465.24 91.71C464.21 89.77 463.7 87.78 463.7 85.72V36.8H431.03V87.78C431.03 95.42 432.97 102.24 436.85 108.22C440.73 114.21 446.14 118.94 453.1 122.42C455.25 123.49 457.51 124.38 459.88 125.12H416.33V0.540039H383.66V125.12H341.65C343.96 124.38 346.17 123.49 348.25 122.42C354.98 118.94 360.14 114.21 363.73 108.22C367.32 102.23 369.12 95.42 369.12 87.78V36.8H336.28V85.72C336.28 87.77 335.77 89.77 334.74 91.71C333.71 93.65 332.26 95.22 330.38 96.41C328.5 97.6 326.25 98.21 323.62 98.21C320.99 98.21 318.69 97.61 316.69 96.41C314.69 95.21 313.18 93.65 312.16 91.71C311.13 89.77 310.62 87.78 310.62 85.72V36.8H277.95V87.78C277.95 95.42 279.89 102.24 283.77 108.22C287.65 114.21 293.06 118.94 300.02 122.42C302.17 123.49 304.43 124.38 306.8 125.12H266.15V98.9H251.61C247.96 98.9 244.79 98.13 242.12 96.59C239.44 95.05 237.36 92.94 235.88 90.26C234.4 87.58 233.66 84.59 233.66 81.28C233.66 77.97 234.4 75.01 235.88 72.38C237.36 69.76 239.44 67.68 242.12 66.14C244.8 64.6 247.96 63.83 251.61 63.83H266.15V36.8H248.7C239.46 36.8 231.25 38.68 224.07 42.45C216.89 46.21 211.24 51.43 207.13 58.1C203.02 64.77 200.97 72.5 200.97 81.28C200.97 90.06 203.02 97.76 207.13 104.37C211.24 110.99 216.88 116.15 224.07 119.85C229.65 122.73 235.86 124.48 242.68 125.12H161.02C163.33 124.38 165.54 123.49 167.62 122.42C174.35 118.94 179.51 114.21 183.1 108.22C186.69 102.23 188.49 95.42 188.49 87.78V36.8H155.65V85.72C155.65 87.77 155.14 89.77 154.11 91.71C153.08 93.65 151.63 95.22 149.75 96.41C147.87 97.6 145.62 98.21 142.99 98.21C140.36 98.21 138.06 97.61 136.06 96.41C134.06 95.21 132.55 93.65 131.53 91.71C130.5 89.77 129.99 87.78 129.99 85.72V36.8H97.32V87.78C97.32 95.42 99.26 102.24 103.14 108.22C107.02 114.21 112.43 118.94 119.39 122.42C121.54 123.49 123.8 124.38 126.17 125.12H86.21V96.5H69.27C64.02 96.5 59.4 95.7 55.41 94.11C51.42 92.51 48.11 90.32 45.49 87.52C42.87 84.73 40.9 81.45 39.59 77.68C38.28 73.92 37.62 69.87 37.62 65.53C37.62 61.19 38.28 57.15 39.59 53.38C40.9 49.62 42.87 46.34 45.49 43.54C48.11 40.75 51.42 38.55 55.41 36.95C59.4 35.35 64.02 34.56 69.27 34.56H86.21V5.67004H68.08C57.36 5.67004 47.81 7.10004 39.43 9.95004C31.05 12.8 23.92 16.91 18.05 22.27C12.17 27.63 7.7 33.96 4.62 41.26C1.54 48.56 0 56.66 0 65.55C0 74.44 1.54 82.54 4.62 89.84C7.7 97.14 12.15 103.47 17.96 108.83C23.78 114.19 30.9 118.3 39.34 121.15C45.59 123.26 52.47 124.59 59.98 125.13H4.49V158.13H605.49V158.08H605.75C613.58 158.08 620.62 156.24 626.86 152.56C633.1 148.88 638.09 144.01 641.85 137.93C645.61 131.85 647.49 125.14 647.49 117.78C647.49 108.35 645.65 100.67 641.97 94.75L641.98 94.74Z" fill="black"/>
<path d="M528.24 190.84C528.08 190.72 527.89 190.66 527.65 190.66C527.49 190.66 527.34 190.72 527.18 190.84C527.02 190.96 526.9 191.13 526.83 191.37L518.72 217.82H536.23L528.59 191.37C528.51 191.13 528.39 190.96 528.24 190.84Z" fill="black"/>
<path d="M216.64 190.84C216.48 190.72 216.29 190.66 216.05 190.66C215.89 190.66 215.74 190.72 215.58 190.84C215.42 190.96 215.3 191.13 215.23 191.37L207.12 217.82H224.63L216.99 191.37C216.91 191.13 216.79 190.96 216.64 190.84Z" fill="black"/>
<path d="M65.12 231.57C64.49 231.18 63.9 230.59 63.36 229.81L58.78 222.64C62.62 219.9 65.7 216.43 68.01 212.24C70.32 208.05 71.48 203.56 71.48 198.78C71.48 192.98 70.03 187.87 67.13 183.44C64.23 179.01 60.35 175.55 55.49 173.04C50.63 170.53 45.22 169.28 39.27 169.28H0.23999V251.56H25.63V228.52H34.21L42.09 241.8C43.81 244.7 46.3 247.05 49.55 248.85C52.8 250.65 56.5 251.55 60.66 251.55H73.82V232.16H67.94C66.69 232.16 65.74 231.96 65.12 231.57ZM44.55 204.36C43.69 205.89 42.55 207.06 41.14 207.89C39.73 208.71 38.24 209.12 36.67 209.12H25.62V189.14H36.67C38.24 189.14 39.73 189.55 41.14 190.37C42.55 191.19 43.69 192.33 44.55 193.78C45.41 195.23 45.84 196.97 45.84 199.01C45.84 201.05 45.41 202.83 44.55 204.36Z" fill="black"/>
<path d="M155.22 179.85C151.26 176.01 146.56 173.03 141.12 170.92C135.67 168.8 129.7 167.75 123.2 167.75C116.7 167.75 110.72 168.81 105.27 170.92C99.82 173.04 95.12 176.01 91.17 179.85C87.21 183.69 84.14 188.22 81.94 193.43C79.74 198.64 78.65 204.3 78.65 210.41C78.65 216.52 79.75 222.17 81.94 227.34C84.13 232.51 87.21 237.04 91.17 240.92C95.13 244.8 99.83 247.8 105.27 249.91C110.72 252.03 116.69 253.08 123.2 253.08C129.71 253.08 135.68 252.02 141.12 249.91C146.57 247.79 151.27 244.8 155.22 240.92C159.18 237.04 162.25 232.52 164.45 227.34C166.64 222.17 167.74 216.53 167.74 210.41C167.74 204.29 166.64 198.64 164.45 193.43C162.26 188.22 159.18 183.69 155.22 179.85ZM140.82 219.05C139.96 221.75 138.7 224.13 137.06 226.16C135.41 228.2 133.42 229.78 131.07 230.92C128.72 232.06 126.09 232.62 123.19 232.62C120.29 232.62 117.66 232.05 115.31 230.92C112.96 229.78 110.96 228.2 109.31 226.16C107.67 224.12 106.41 221.75 105.55 219.05C104.69 216.35 104.26 213.47 104.26 210.41C104.26 207.35 104.69 204.47 105.55 201.77C106.41 199.07 107.67 196.7 109.31 194.66C110.96 192.62 112.95 191.04 115.31 189.9C117.66 188.76 120.29 188.2 123.19 188.2C126.09 188.2 128.71 188.77 131.07 189.9C133.42 191.04 135.42 192.62 137.06 194.66C138.71 196.7 139.96 199.07 140.82 201.77C141.68 204.47 142.11 207.35 142.11 210.41C142.11 213.47 141.68 216.35 140.82 219.05Z" fill="black"/>
<path d="M227.63 170.68C224.22 168.72 220.36 167.74 216.05 167.74C211.74 167.74 207.88 168.74 204.47 170.74C201.06 172.74 198.61 175.7 197.12 179.61L170.79 251.55H197.12L201.82 237.21H229.91L234.38 251.55H261.3L234.97 179.5C233.48 175.58 231.03 172.64 227.62 170.68H227.63Z" fill="black"/>
<path d="M323.83 174.56C317.48 171.03 310 169.27 301.38 169.27H266.47V251.55H301.38C310 251.55 317.48 249.79 323.83 246.26C330.18 242.73 335.09 237.88 338.58 231.68C342.07 225.49 343.81 218.4 343.81 210.4C343.81 202.4 342.07 195.32 338.58 189.12C335.09 182.93 330.18 178.07 323.83 174.54V174.56ZM315.84 221.81C314.27 225.02 312.12 227.47 309.38 229.16C306.64 230.85 303.5 231.69 299.98 231.69H291.87V189.14H299.98C303.51 189.14 306.64 190 309.38 191.73C312.12 193.45 314.28 195.9 315.84 199.08C317.41 202.25 318.19 206.04 318.19 210.42C318.19 214.8 317.41 218.61 315.84 221.82V221.81Z" fill="black"/>
<path d="M462.77 170.92C458.38 168.8 453.68 167.75 448.67 167.75C443.66 167.75 438.93 168.81 434.51 170.92C430.08 173.04 426.5 176.09 423.75 180.09C421.01 184.09 419.64 188.95 419.64 194.67V226.52C419.64 227.54 419.4 228.42 418.93 229.17C418.46 229.92 417.83 230.48 417.05 230.87C416.27 231.26 415.44 231.46 414.58 231.46C413.8 231.46 413.05 231.26 412.35 230.87C411.64 230.48 411.06 229.91 410.59 229.17C410.12 228.43 409.88 227.54 409.88 226.52V194.67C409.88 188.95 408.51 184.09 405.77 180.09C403.03 176.09 399.46 173.04 395.07 170.92C390.68 168.8 385.94 167.75 380.85 167.75C375.76 167.75 370.98 168.81 366.51 170.92C362.04 173.04 358.46 176.09 355.76 180.09C353.06 184.09 351.7 188.95 351.7 194.67V251.56H375.91V194.43C375.91 193.41 376.13 192.53 376.56 191.79C376.99 191.05 377.58 190.48 378.32 190.09C379.06 189.7 379.91 189.5 380.85 189.5C381.79 189.5 382.61 189.7 383.32 190.09C384.03 190.48 384.59 191.05 385.02 191.79C385.45 192.54 385.67 193.42 385.67 194.43V226.28C385.67 232.08 387.04 236.98 389.78 240.97C392.52 244.97 396.11 247.98 400.54 250.02C404.97 252.06 409.69 253.08 414.7 253.08C419.71 253.08 424.42 252.06 428.81 250.02C433.2 247.98 436.78 244.96 439.56 240.97C442.34 236.97 443.73 232.08 443.73 226.28V194.07C443.73 193.13 443.95 192.33 444.38 191.66C444.81 191 445.42 190.47 446.2 190.07C446.98 189.68 447.81 189.48 448.67 189.48C449.53 189.48 450.32 189.68 451.02 190.07C451.73 190.46 452.31 190.99 452.78 191.66C453.25 192.33 453.49 193.13 453.49 194.07V251.55H477.59V194.66C477.59 188.94 476.22 184.08 473.48 180.08C470.74 176.08 467.17 173.03 462.78 170.91L462.77 170.92Z" fill="black"/>
<path d="M539.23 170.68C535.82 168.72 531.96 167.74 527.65 167.74C523.34 167.74 519.48 168.74 516.07 170.74C512.66 172.74 510.21 175.7 508.72 179.61L482.39 251.55H508.72L513.42 237.21H541.51L545.98 251.55H572.9L546.57 179.5C545.08 175.58 542.63 172.64 539.22 170.68H539.23Z" fill="black"/>
<path d="M631.21 173.09C626.35 170.54 620.98 169.27 615.11 169.27H578.08V251.55H603.47V229.8H615.11C620.99 229.8 626.35 228.51 631.21 225.92C636.07 223.33 639.95 219.75 642.85 215.16C645.75 210.58 647.2 205.31 647.2 199.35C647.2 193.39 645.75 188.17 642.85 183.66C639.95 179.16 636.07 175.63 631.21 173.08V173.09ZM620.28 205.18C619.42 206.71 618.3 207.88 616.93 208.71C615.56 209.53 614.05 209.94 612.41 209.94H603.48V189.13H612.41C614.06 189.13 615.56 189.54 616.93 190.36C618.3 191.18 619.42 192.38 620.28 193.94C621.14 195.51 621.57 197.39 621.57 199.58C621.57 201.77 621.14 203.64 620.28 205.16V205.18Z" fill="black"/>
</svg>
