<svg width="648" height="254" viewBox="0 0 648 254" fill="none" xmlns="http://www.w3.org/2000/svg">
<g clip-path="url(#clip0_5_48)">
<path d="M642.04 94.74C638.36 88.83 633.12 84.47 626.33 81.67C619.53 78.87 611.49 77.47 602.22 77.47H584.95C583.35 77.47 582.03 76.91 580.99 75.79C579.95 74.67 579.43 73.39 579.43 71.95C579.43 70.51 579.95 69.23 580.99 68.11C582.03 66.99 583.35 66.43 584.95 66.43H637.25V33.8H574.16C566.64 33.8 559.77 35.6 553.53 39.2C547.29 42.8 542.38 47.6 538.78 53.59C535.18 59.59 533.38 66.27 533.38 73.62C533.38 83.06 535.34 90.77 539.26 96.77C543.18 102.77 548.5 107.17 555.21 109.96C561.93 112.76 569.36 114.16 577.52 114.16H596.23C597.51 114.16 598.55 114.4 599.35 114.88C600.15 115.36 600.79 116.04 601.27 116.92C601.75 117.8 601.99 118.72 601.99 119.68C601.99 120.64 601.75 121.56 601.27 122.44C600.79 123.32 600.15 124.04 599.35 124.6C599.03 124.82 598.67 124.99 598.28 125.12H494.79C497.1 124.38 499.31 123.49 501.39 122.42C508.12 118.94 513.28 114.21 516.87 108.22C520.46 102.23 522.26 95.42 522.26 87.78V36.8H489.42V85.72C489.42 87.77 488.91 89.77 487.88 91.71C486.85 93.65 485.4 95.22 483.52 96.41C481.64 97.6 479.39 98.21 476.76 98.21C474.13 98.21 471.83 97.61 469.83 96.41C467.83 95.21 466.32 93.65 465.3 91.71C464.27 89.77 463.76 87.78 463.76 85.72V36.8H431.09V87.78C431.09 95.42 433.03 102.24 436.91 108.22C440.79 114.21 446.2 118.94 453.16 122.42C455.31 123.49 457.57 124.38 459.94 125.12H416.39V0.540039H383.72V125.12H341.71C344.02 124.38 346.23 123.49 348.31 122.42C355.04 118.94 360.2 114.21 363.79 108.22C367.38 102.23 369.18 95.42 369.18 87.78V36.8H336.34V85.72C336.34 87.77 335.83 89.77 334.8 91.71C333.77 93.65 332.32 95.22 330.44 96.41C328.56 97.6 326.31 98.21 323.68 98.21C321.05 98.21 318.75 97.61 316.75 96.41C314.75 95.21 313.24 93.65 312.22 91.71C311.19 89.77 310.68 87.78 310.68 85.72V36.8H278.01V87.78C278.01 95.42 279.95 102.24 283.83 108.22C287.71 114.21 293.12 118.94 300.08 122.42C302.23 123.49 304.49 124.38 306.86 125.12H266.21V98.9H251.67C248.02 98.9 244.85 98.13 242.18 96.59C239.5 95.05 237.42 92.94 235.94 90.26C234.46 87.58 233.72 84.59 233.72 81.28C233.72 77.97 234.46 75.01 235.94 72.38C237.42 69.76 239.5 67.68 242.18 66.14C244.86 64.6 248.02 63.83 251.67 63.83H266.21V36.8H248.76C239.52 36.8 231.31 38.68 224.13 42.45C216.95 46.21 211.3 51.43 207.19 58.1C203.08 64.77 201.03 72.5 201.03 81.28C201.03 90.06 203.08 97.76 207.19 104.37C211.3 110.99 216.94 116.15 224.13 119.85C229.71 122.73 235.92 124.48 242.74 125.12H161.08C163.39 124.38 165.6 123.49 167.68 122.42C174.41 118.94 179.57 114.21 183.16 108.22C186.75 102.23 188.55 95.42 188.55 87.78V36.8H155.71V85.72C155.71 87.77 155.2 89.77 154.17 91.71C153.14 93.65 151.69 95.22 149.81 96.41C147.93 97.6 145.68 98.21 143.05 98.21C140.42 98.21 138.12 97.61 136.12 96.41C134.12 95.21 132.61 93.65 131.59 91.71C130.56 89.77 130.05 87.78 130.05 85.72V36.8H97.3801V87.78C97.3801 95.42 99.3201 102.24 103.2 108.22C107.08 114.21 112.49 118.94 119.45 122.42C121.6 123.49 123.86 124.38 126.23 125.12H86.2701V96.5H69.3301C64.0801 96.5 59.4601 95.7 55.4701 94.11C51.4801 92.51 48.1701 90.32 45.5501 87.52C42.9301 84.73 40.9601 81.45 39.6501 77.68C38.3401 73.92 37.6801 69.87 37.6801 65.53C37.6801 61.19 38.3401 57.15 39.6501 53.38C40.9601 49.62 42.9301 46.34 45.5501 43.54C48.1701 40.75 51.4801 38.55 55.4701 36.95C59.4601 35.35 64.0801 34.56 69.3301 34.56H86.2701V5.67004H68.1401C57.4201 5.67004 47.8701 7.10004 39.4901 9.95004C31.1101 12.8 23.9801 16.91 18.1101 22.27C12.2301 27.63 7.76006 33.96 4.68006 41.26C1.60006 48.56 0.0600586 56.66 0.0600586 65.55C0.0600586 74.44 1.60006 82.54 4.68006 89.84C7.76006 97.14 12.2101 103.47 18.0201 108.83C23.8401 114.19 30.9601 118.3 39.4001 121.15C45.6501 123.26 52.5301 124.59 60.0401 125.13H4.55006V158.13H605.55V158.08H605.81C613.64 158.08 620.68 156.24 626.92 152.56C633.16 148.88 638.15 144.01 641.91 137.93C645.67 131.85 647.55 125.14 647.55 117.78C647.55 108.35 645.71 100.67 642.03 94.75L642.04 94.74Z" fill="url(#paint0_linear_5_48)"/>
<path d="M528.3 190.84C528.14 190.72 527.95 190.66 527.71 190.66C527.55 190.66 527.4 190.72 527.24 190.84C527.08 190.96 526.96 191.13 526.89 191.37L518.78 217.82H536.29L528.65 191.37C528.57 191.13 528.45 190.96 528.3 190.84Z" fill="url(#paint1_linear_5_48)"/>
<path d="M216.7 190.84C216.54 190.72 216.35 190.66 216.11 190.66C215.95 190.66 215.8 190.72 215.64 190.84C215.48 190.96 215.36 191.13 215.29 191.37L207.18 217.82H224.69L217.05 191.37C216.97 191.13 216.85 190.96 216.7 190.84Z" fill="url(#paint2_linear_5_48)"/>
<path d="M65.18 231.57C64.55 231.18 63.96 230.59 63.42 229.81L58.84 222.64C62.68 219.9 65.76 216.43 68.07 212.24C70.38 208.05 71.54 203.56 71.54 198.78C71.54 192.98 70.09 187.87 67.19 183.44C64.29 179.01 60.41 175.55 55.55 173.04C50.69 170.53 45.2801 169.28 39.3301 169.28H0.300049V251.56H25.6901V228.52H34.2701L42.1501 241.8C43.8701 244.7 46.3601 247.05 49.6101 248.85C52.8601 250.65 56.5601 251.55 60.7201 251.55H73.88V232.16H68C66.75 232.16 65.8 231.96 65.18 231.57ZM44.6101 204.36C43.75 205.89 42.6101 207.06 41.2001 207.89C39.7901 208.71 38.3 209.12 36.73 209.12H25.68V189.14H36.73C38.3 189.14 39.7901 189.55 41.2001 190.37C42.6101 191.19 43.75 192.33 44.6101 193.78C45.4701 195.23 45.9001 196.97 45.9001 199.01C45.9001 201.05 45.4701 202.83 44.6101 204.36Z" fill="url(#paint3_linear_5_48)"/>
<path d="M155.28 179.85C151.32 176.01 146.62 173.03 141.18 170.92C135.73 168.8 129.76 167.75 123.26 167.75C116.76 167.75 110.78 168.81 105.33 170.92C99.8801 173.04 95.1801 176.01 91.2301 179.85C87.2701 183.69 84.2001 188.22 82.0001 193.43C79.8001 198.64 78.7101 204.3 78.7101 210.41C78.7101 216.52 79.8101 222.17 82.0001 227.34C84.1901 232.51 87.2701 237.04 91.2301 240.92C95.1901 244.8 99.8901 247.8 105.33 249.91C110.78 252.03 116.75 253.08 123.26 253.08C129.77 253.08 135.74 252.02 141.18 249.91C146.63 247.79 151.33 244.8 155.28 240.92C159.24 237.04 162.31 232.52 164.51 227.34C166.7 222.17 167.8 216.53 167.8 210.41C167.8 204.29 166.7 198.64 164.51 193.43C162.32 188.22 159.24 183.69 155.28 179.85ZM140.88 219.05C140.02 221.75 138.76 224.13 137.12 226.16C135.47 228.2 133.48 229.78 131.13 230.92C128.78 232.06 126.15 232.62 123.25 232.62C120.35 232.62 117.72 232.05 115.37 230.92C113.02 229.78 111.02 228.2 109.37 226.16C107.73 224.12 106.47 221.75 105.61 219.05C104.75 216.35 104.32 213.47 104.32 210.41C104.32 207.35 104.75 204.47 105.61 201.77C106.47 199.07 107.73 196.7 109.37 194.66C111.02 192.62 113.01 191.04 115.37 189.9C117.72 188.76 120.35 188.2 123.25 188.2C126.15 188.2 128.77 188.77 131.13 189.9C133.48 191.04 135.48 192.62 137.12 194.66C138.77 196.7 140.02 199.07 140.88 201.77C141.74 204.47 142.17 207.35 142.17 210.41C142.17 213.47 141.74 216.35 140.88 219.05Z" fill="url(#paint4_linear_5_48)"/>
<path d="M227.69 170.68C224.28 168.72 220.42 167.74 216.11 167.74C211.8 167.74 207.94 168.74 204.53 170.74C201.12 172.74 198.67 175.7 197.18 179.61L170.85 251.55H197.18L201.88 237.21H229.97L234.44 251.55H261.36L235.03 179.5C233.54 175.58 231.09 172.64 227.68 170.68H227.69Z" fill="url(#paint5_linear_5_48)"/>
<path d="M323.89 174.56C317.54 171.03 310.06 169.27 301.44 169.27H266.53V251.55H301.44C310.06 251.55 317.54 249.79 323.89 246.26C330.24 242.73 335.15 237.88 338.64 231.68C342.13 225.49 343.87 218.4 343.87 210.4C343.87 202.4 342.13 195.32 338.64 189.12C335.15 182.93 330.24 178.07 323.89 174.54V174.56ZM315.9 221.81C314.33 225.02 312.18 227.47 309.44 229.16C306.7 230.85 303.56 231.69 300.04 231.69H291.93V189.14H300.04C303.57 189.14 306.7 190 309.44 191.73C312.18 193.45 314.34 195.9 315.9 199.08C317.47 202.25 318.25 206.04 318.25 210.42C318.25 214.8 317.47 218.61 315.9 221.82V221.81Z" fill="url(#paint6_linear_5_48)"/>
<path d="M462.83 170.92C458.44 168.8 453.74 167.75 448.73 167.75C443.72 167.75 438.99 168.81 434.57 170.92C430.14 173.04 426.56 176.09 423.81 180.09C421.07 184.09 419.7 188.95 419.7 194.67V226.52C419.7 227.54 419.46 228.42 418.99 229.17C418.52 229.92 417.89 230.48 417.11 230.87C416.33 231.26 415.5 231.46 414.64 231.46C413.86 231.46 413.11 231.26 412.41 230.87C411.7 230.48 411.12 229.91 410.65 229.17C410.18 228.43 409.94 227.54 409.94 226.52V194.67C409.94 188.95 408.57 184.09 405.83 180.09C403.09 176.09 399.52 173.04 395.13 170.92C390.74 168.8 386 167.75 380.91 167.75C375.82 167.75 371.04 168.81 366.57 170.92C362.1 173.04 358.52 176.09 355.82 180.09C353.12 184.09 351.76 188.95 351.76 194.67V251.56H375.97V194.43C375.97 193.41 376.19 192.53 376.62 191.79C377.05 191.05 377.64 190.48 378.38 190.09C379.12 189.7 379.97 189.5 380.91 189.5C381.85 189.5 382.67 189.7 383.38 190.09C384.09 190.48 384.65 191.05 385.08 191.79C385.51 192.54 385.73 193.42 385.73 194.43V226.28C385.73 232.08 387.1 236.98 389.84 240.97C392.58 244.97 396.17 247.98 400.6 250.02C405.03 252.06 409.75 253.08 414.76 253.08C419.77 253.08 424.48 252.06 428.87 250.02C433.26 247.98 436.84 244.96 439.62 240.97C442.4 236.97 443.79 232.08 443.79 226.28V194.07C443.79 193.13 444.01 192.33 444.44 191.66C444.87 191 445.48 190.47 446.26 190.07C447.04 189.68 447.87 189.48 448.73 189.48C449.59 189.48 450.38 189.68 451.08 190.07C451.79 190.46 452.37 190.99 452.84 191.66C453.31 192.33 453.55 193.13 453.55 194.07V251.55H477.65V194.66C477.65 188.94 476.28 184.08 473.54 180.08C470.8 176.08 467.23 173.03 462.84 170.91L462.83 170.92Z" fill="url(#paint7_linear_5_48)"/>
<path d="M539.29 170.68C535.88 168.72 532.02 167.74 527.71 167.74C523.4 167.74 519.54 168.74 516.13 170.74C512.72 172.74 510.27 175.7 508.78 179.61L482.45 251.55H508.78L513.48 237.21H541.57L546.04 251.55H572.96L546.63 179.5C545.14 175.58 542.69 172.64 539.28 170.68H539.29Z" fill="url(#paint8_linear_5_48)"/>
<path d="M631.27 173.09C626.41 170.54 621.04 169.27 615.17 169.27H578.14V251.55H603.53V229.8H615.17C621.05 229.8 626.41 228.51 631.27 225.92C636.13 223.33 640.01 219.75 642.91 215.16C645.81 210.58 647.26 205.31 647.26 199.35C647.26 193.39 645.81 188.17 642.91 183.66C640.01 179.16 636.13 175.63 631.27 173.08V173.09ZM620.34 205.18C619.48 206.71 618.36 207.88 616.99 208.71C615.62 209.53 614.11 209.94 612.47 209.94H603.54V189.13H612.47C614.12 189.13 615.62 189.54 616.99 190.36C618.36 191.18 619.48 192.38 620.34 193.94C621.2 195.51 621.63 197.39 621.63 199.58C621.63 201.77 621.2 203.64 620.34 205.16V205.18Z" fill="url(#paint9_linear_5_48)"/>
</g>
<defs>
<linearGradient id="paint0_linear_5_48" x1="-4.69994" y1="79.33" x2="647.89" y2="79.33" gradientUnits="userSpaceOnUse">
<stop stop-color="#FF40DB"/>
<stop offset="0.49" stop-color="#3EA8FF"/>
<stop offset="1" stop-color="#5AFFBC"/>
</linearGradient>
<linearGradient id="paint1_linear_5_48" x1="0.251543" y1="204.24" x2="648.25" y2="204.24" gradientUnits="userSpaceOnUse">
<stop stop-color="#FF40DB"/>
<stop offset="0.49" stop-color="#3EA8FF"/>
<stop offset="1" stop-color="#5AFFBC"/>
</linearGradient>
<linearGradient id="paint2_linear_5_48" x1="0.249946" y1="204.24" x2="648.25" y2="204.24" gradientUnits="userSpaceOnUse">
<stop stop-color="#FF40DB"/>
<stop offset="0.49" stop-color="#3EA8FF"/>
<stop offset="1" stop-color="#5AFFBC"/>
</linearGradient>
<linearGradient id="paint3_linear_5_48" x1="0.300049" y1="210.41" x2="648.3" y2="210.41" gradientUnits="userSpaceOnUse">
<stop stop-color="#FF40DB"/>
<stop offset="0.49" stop-color="#3EA8FF"/>
<stop offset="1" stop-color="#5AFFBC"/>
</linearGradient>
<linearGradient id="paint4_linear_5_48" x1="0.250076" y1="210.41" x2="648.25" y2="210.41" gradientUnits="userSpaceOnUse">
<stop stop-color="#FF40DB"/>
<stop offset="0.49" stop-color="#3EA8FF"/>
<stop offset="1" stop-color="#5AFFBC"/>
</linearGradient>
<linearGradient id="paint5_linear_5_48" x1="0.250145" y1="209.65" x2="648.25" y2="209.65" gradientUnits="userSpaceOnUse">
<stop stop-color="#FF40DB"/>
<stop offset="0.49" stop-color="#3EA8FF"/>
<stop offset="1" stop-color="#5AFFBC"/>
</linearGradient>
<linearGradient id="paint6_linear_5_48" x1="0.250036" y1="210.41" x2="648.25" y2="210.41" gradientUnits="userSpaceOnUse">
<stop stop-color="#FF40DB"/>
<stop offset="0.49" stop-color="#3EA8FF"/>
<stop offset="1" stop-color="#5AFFBC"/>
</linearGradient>
<linearGradient id="paint7_linear_5_48" x1="0.250057" y1="210.41" x2="648.25" y2="210.41" gradientUnits="userSpaceOnUse">
<stop stop-color="#FF40DB"/>
<stop offset="0.49" stop-color="#3EA8FF"/>
<stop offset="1" stop-color="#5AFFBC"/>
</linearGradient>
<linearGradient id="paint8_linear_5_48" x1="0.250039" y1="209.65" x2="648.25" y2="209.65" gradientUnits="userSpaceOnUse">
<stop stop-color="#FF40DB"/>
<stop offset="0.49" stop-color="#3EA8FF"/>
<stop offset="1" stop-color="#5AFFBC"/>
</linearGradient>
<linearGradient id="paint9_linear_5_48" x1="0.250208" y1="210.41" x2="648.25" y2="210.41" gradientUnits="userSpaceOnUse">
<stop stop-color="#FF40DB"/>
<stop offset="0.49" stop-color="#3EA8FF"/>
<stop offset="1" stop-color="#5AFFBC"/>
</linearGradient>
<clipPath id="clip0_5_48">
<rect width="647.55" height="252.54" fill="white" transform="translate(0 0.540039)"/>
</clipPath>
</defs>
</svg>
